<?xml version="1.0" encoding="UTF-8"?>
<svg id="Layer_8" data-name="Layer 8" xmlns="http://www.w3.org/2000/svg" viewBox="0 0 3203.18 991.78">
  <defs>
    <style>
      .cls-1, .cls-2 {
        fill: #0c1702;
      }

      .cls-1, .cls-2, .cls-3, .cls-4 {
        stroke-width: 0px;
      }

      .cls-2, .cls-5 {
        opacity: .9;
      }

      .cls-3 {
        fill: #62832d;
      }

      .cls-4 {
        fill: #231f20;
      }
    </style>
  </defs>
  <g class="cls-5">
    <path class="cls-1" d="M1472.77,9.53h75.26l164.06,284.98V9.53h43.15v401.38h-47.16l-192.16-331.13v331.13h-43.15V9.53Z"/>
    <path class="cls-1" d="M1910.27,9.53v401.38h-67.73V9.53h67.73Z"/>
    <path class="cls-1" d="M1997.56,9.53h119.91c87.8,0,131.95,35.12,131.95,98.34,0,52.18-31.11,86.8-85.29,95.33v1c64.22,7.02,103.35,44.15,103.35,100.85,0,67.23-49.17,105.86-145,105.86h-124.93V9.53ZM2182.19,114.39c0-41.64-26.09-66.73-69.24-66.73h-48.17v136.97h45.66c42.65,0,71.75-27.09,71.75-70.24ZM2199.25,300.53c0-52.68-36.63-77.26-86.3-77.26h-48.17v149.51h51.68c53.18,0,82.78-25.59,82.78-72.25Z"/>
    <path class="cls-1" d="M2333.7,9.53h119.91c87.8,0,131.95,35.12,131.95,98.34,0,52.18-31.11,86.8-85.29,95.33v1c64.22,7.02,103.35,44.15,103.35,100.85,0,67.23-49.17,105.86-145,105.86h-124.93V9.53ZM2518.34,114.39c0-41.64-26.09-66.73-69.24-66.73h-48.17v136.97h45.66c42.65,0,71.75-27.09,71.75-70.24ZM2535.4,300.53c0-52.68-36.63-77.26-86.3-77.26h-48.17v149.51h51.68c53.18,0,82.78-25.59,82.78-72.25Z"/>
    <path class="cls-1" d="M2737.58,370.26h170.58v40.64h-238.32V9.53h67.73v360.74Z"/>
    <path class="cls-1" d="M3203.18,49.16h-178.11v134.46h133.96v39.13h-133.96v148.01h178.11v40.14h-245.84V9.53h245.84v39.64Z"/>
  </g>
  <g class="cls-5">
    <path class="cls-1" d="M1826.72,493.12v488.87h-81.89v-228.55h-188.83v228.55h-82.5v-488.87h82.5v208.38h188.83v-208.38h81.89Z"/>
    <path class="cls-1" d="M1898.84,737.56c0-150.33,81.27-254.21,201.05-254.21s200.44,103.89,200.44,254.21-81.28,254.22-200.44,254.22-201.05-104.5-201.05-254.22ZM2212.33,737.56c0-130.16-41.55-206.55-112.44-206.55s-113.05,76.39-113.05,206.55,41.55,205.94,113.05,205.94,112.44-76.39,112.44-205.94Z"/>
    <path class="cls-1" d="M2354.1,737.56c0-150.33,81.27-254.21,201.05-254.21s200.44,103.89,200.44,254.21-81.28,254.22-200.44,254.22-201.05-104.5-201.05-254.22ZM2667.59,737.56c0-130.16-41.55-206.55-112.44-206.55s-113.05,76.39-113.05,206.55,41.55,205.94,113.05,205.94,112.44-76.39,112.44-205.94Z"/>
    <path class="cls-1" d="M2827.7,493.12h127.72c151.55,0,246.27,88.61,246.27,244.44s-92.27,244.44-241.38,244.44h-132.61v-488.87ZM3114.91,738.17c0-127.11-61.11-196.77-160.72-196.77h-44v392.32h44c104.5,0,160.72-65.39,160.72-195.55Z"/>
  </g>
  <g>
    <path class="cls-3" d="M964.25,299.5c-129.4,18.57-263.94,27.39-394.52,28.47-136.91,1.81-276.48-1.04-413.98-6.01,1.26-1.77,2.63-3.45,4.09-5.06,6.12-6.81,13.71-12.34,21.18-17.76,33.5-24.29,67-48.57,100.5-72.86,22.76-16.5,45.98-33.24,72.65-42.09,21.63-7.17,44.65-13.85,66.88-18.87,15.65-3.53,30.87-7.2,46.14-10.82.33.53.68,1.05,1.03,1.57.33.49.67.99,1.01,1.47.9,1.26,1.84,2.49,2.82,3.68.27.34.55.67.83,1,1.24,1.46,2.54,2.87,3.9,4.24.39.4.79.8,1.2,1.18.46.45.92.89,1.39,1.31.47.43.94.86,1.42,1.28.48.42.97.84,1.46,1.24.42.36.86.72,1.29,1.06.56.45,1.14.9,1.72,1.34,1.02.78,2.06,1.53,3.12,2.26,1.06.74,2.14,1.45,3.23,2.13,2.18,1.38,4.43,2.66,6.73,3.85,1.14.61,2.3,1.18,3.48,1.72.58.29,1.17.56,1.76.81,1.18.53,2.38,1.04,3.58,1.51.74.3,1.49.59,2.25.87,1.06.4,2.12.77,3.19,1.12.61.2,1.22.4,1.83.59.61.2,1.22.38,1.84.56,25.09,7.27,51.79,5.77,77.83,3.63,5.01-.41,10.1-.87,15.17-1.55,1.26-.17,2.52-.35,3.78-.55,1.27-.2,2.52-.41,3.77-.63s2.5-.47,3.74-.74c1.24-.26,2.47-.55,3.69-.86,1.22-.3,2.43-.63,3.63-.99,1.2-.36,2.39-.73,3.57-1.14.59-.19,1.18-.41,1.76-.63.58-.21,1.16-.43,1.74-.67,1.15-.46,2.28-.95,3.4-1.47,1.12-.51,2.22-1.07,3.31-1.66.55-.29,1.09-.6,1.62-.91,2.67-1.54,5.21-3.31,7.61-5.34.6-.5,1.18-1.01,1.74-1.54.65-.61,1.29-1.23,1.91-1.87.28-.27.54-.55.8-.83.56-.59,1.1-1.2,1.63-1.82.34-.39.67-.79,1-1.2.19-.23.37-.46.55-.69.32-.4.63-.8.93-1.21.43-.57.85-1.15,1.26-1.73.01-.02.02-.04.04-.06.42-.61.83-1.23,1.23-1.85.25-.39.5-.78.74-1.17.29-.46.57-.93.84-1.41.3-.5.59-1,.87-1.51.16-.29.32-.58.48-.87.36-.66.71-1.34,1.05-2.01.26-.49.5-.99.74-1.49.3-.62.59-1.25.87-1.88.16-.33.31-.67.45-1,.02-.03.04-.07.05-.11.28-.61.54-1.24.79-1.85.33-.77.63-1.53.93-2.31.31-.77.6-1.56.88-2.34.28-.77.56-1.56.83-2.34,14.28,1.45,28.47,3.52,42.51,6.46,31.64,6.62,38.44,9.89,69.37,19.26,52.76,16,104.13,40.83,142.46,80.46,13.08,13.53,24.43,28.55,34.54,44.43,1.31,2.05,2.6,4.12,3.87,6.2Z"/>
    <path class="cls-4" d="M671.5,142.68c-4.31,12.6-10.53,24.59-20.61,33.09-15.37,12.97-36.75,15.5-56.79,17.14-26.04,2.14-52.74,3.64-77.83-3.63-19.65-5.69-38.36-17.78-49.08-34.79,12.59-2.98,25.22-5.93,38.14-8.72,30.94-6.7,62.9-6.55,94.55-6.38,23.87.14,47.86.86,71.62,3.29Z"/>
    <path class="cls-3" d="M1146.06,457.08c-.87-13.97-2.53-27.89-4.98-41.66-5.59-31.48-14.8-71.87-45.5-80.76-18.92-5.48-76.48-12.04-114.67-5.28-5.21-10.15-10.72-20.15-16.66-29.88-129.4,18.57-263.94,27.39-394.52,28.47-136.91,1.81-276.48-1.04-413.98-6.01-.12.14-.22.3-.33.45-15.19-1.3-31.65.94-46.54,1.93-22.03,1.47-44.96,3.2-64.02,14.35-20.58,12.04-34.04,33.94-40.09,57-6.06,23.06-5.44,47.34-3.11,71.07.96,9.72,2.29,19.72,7.19,28.17,11.79,20.38,38.88,24.62,62.35,26.51,15.42,1.24,30.84,2.42,46.3,3.05v.05c-5.43,85.11-2.32,171.28.86,256.64.69,18.59,1.52,37.77,9.44,54.61,7.57,16.08,20.92,28.57,33.95,40.65,29.36,27.18,58.72,54.37,88.08,81.55,10.7,9.91,21.78,20.05,35.46,25.07,9.09,3.34,18.88,4.23,28.53,4.97,108.49,8.3,217.5,1.28,326.04-6.26,117.08-8.13,241.01-19.29,335.59-88.77,9.21-6.77,18.21-14.21,24.38-23.83,8.14-12.69,10.68-28.08,12.7-43.03,13.6-100.13,12.27-201.58,10.24-302.64h0c11.51-.26,23.02-.88,34.49-1.85,19.71-1.67,39.6-4.47,57.85-12.13,11.05-4.64,21.88-11.58,27.18-22.33,4.52-9.18,4.4-19.9,3.77-30.11ZM122.1,471.35c-9.55-2.02-18.22-6.26-23.16-15.15-5.2-9.34-4.49-21.11-3.62-32.02.83-10.26,1.99-21.38,8.46-28.84,6.76-7.81,17.38-9.4,27.14-10.54,1.61-.19,3.26-.43,4.96-.7-6.06,28.86-10.53,57.97-13.78,87.25ZM585.25,760.38c-27.08,0-50.9-21.35-64.65-53.65,6.21,5.31,13.33,8.33,20.9,8.33,24.16,0,43.75-30.76,43.75-68.71s-19.59-68.72-43.75-68.72c-9.51,0-18.31,4.76-25.48,12.85,12.56-39.07,38.85-65.95,69.23-65.95,42.59,0,77.11,52.8,77.11,117.92s-34.52,117.93-77.11,117.93ZM749.87,760.38c-27.08,0-50.9-21.35-64.65-53.65,6.21,5.31,13.33,8.33,20.9,8.33,24.16,0,43.75-30.76,43.75-68.71s-19.59-68.72-43.75-68.72c-9.51,0-18.31,4.76-25.48,12.85,12.56-39.07,38.85-65.95,69.23-65.95,42.59,0,77.11,52.8,77.11,117.92s-34.52,117.93-77.11,117.93ZM1058.8,455.59c-3.23,7.9-10.85,13.34-18.96,15.99-5.92,1.94-12.13,2.6-18.38,2.91-1.04-22.12-3.2-44.13-8.55-65.58-2.19-8.79-4.91-17.43-8.01-25.95h0c35.03-2.41,46.75,15.45,54.02,48.78,1.72,7.89,2.94,16.38-.12,23.85Z"/>
    <path class="cls-2" d="M679.54,104.16c-.54,9.75-2.51,19.38-5.08,28.8-.88,3.25-1.86,6.5-2.96,9.72-4.31,12.6-10.53,24.59-20.61,33.09-15.37,12.97-36.75,15.5-56.79,17.14-26.04,2.14-52.74,3.64-77.83-3.63-19.65-5.69-38.36-17.78-49.08-34.79-2.97-4.71-5.33-9.8-6.93-15.23-6.35-21.57-.06-44.63,6.7-66.07,5.8-18.41,12.71-37.8,27.96-49.64,9.34-7.25,20.91-10.9,32.2-14.41,41.88-13,85.33-15.82,120.47,16.49,9.91,9.11,23.81,20.3,29.29,32.58,6.41,14.37,3.52,30.23,2.66,45.95Z"/>
    <g class="cls-5">
      <path class="cls-1" d="M964.25,299.5c-129.4,18.57-263.94,27.39-394.52,28.47-136.91,1.81-276.48-1.04-413.98-6.01l4.09-5.06c170.48,3.12,342.33,4.11,510.71-4.67,87.74-3.97,181.71-9.33,269.16-17.19,6.75-.52,13.66-1.11,20.67-1.74,1.31,2.05,2.6,4.12,3.87,6.2Z"/>
    </g>
  </g>
</svg>